# xmcd
# 
# Track frame offsets:
#     150
#     42557
#     86737
#     112055
#     164237
#     206685
# 
# Disc length: 3327
# 
# Revision: 55
# Processed by: cddbd v1.5.2PL0 Copyright (c) Steve Scherf et al.
# Submitted via: fre:ac v1.0.31
# 
DISCID=5a0cfd06
DTITLE=Miles Davis - Kind of Blue
DYEAR=2011
DGENRE=Jazz
TTITLE0=So What
TTITLE1=Freddie Freeloader
TTITLE2=Blue in Green
TTITLE3=All Blues
TTITLE4=Flamenco Sketches
TTITLE5=Flamenco Sketches (Alternate Take)Bonus track on original LP
EXTD=1997 Columbia/Legacy ReissueMiles Davis - TrumpetJulian"Cannonball" Adderley - Alto Saxophone (except #3)John Coltrane - Tenor SaxophoneWynton Kelly - Piano (#2)Bill Evans - Piano (all others)Paul Chambers - BassJimmy Cobb - DrumsOriginal Recordingpr
EXTD=oduced by Irving Townsend5 099706 493525 CK 64935 Columbia Legacy(P) 1959 Columbia (C) 1997 Sony Music Entertainment Inc. YEAR: 1997
EXTT0=
EXTT1=
EXTT2=
EXTT3=
EXTT4=
EXTT5=
PLAYORDER=
